<svg width="474" height="534" viewBox="0 0 474 534" fill="none" xmlns="http://www.w3.org/2000/svg">
<g clip-path="url(#clip0_15_411)">
<path d="M47.4914 485.775L46.7661 466.283C39.2052 461.452 30.7721 458.901 22.199 458.85C33.9981 470.38 32.5236 492.606 40.5232 508.111C43.0492 512.924 46.449 516.996 50.4706 520.025C54.4923 523.055 59.0327 524.963 63.7553 525.61L73.6293 532.836C74.9842 523.808 74.6855 514.536 72.7538 505.66C70.8221 496.783 67.3032 488.513 62.4398 481.418C59.6784 477.47 56.5121 473.954 53.0155 470.952C50.6507 478.405 47.4914 485.775 47.4914 485.775Z" fill="#F2F2F2"/>
<path d="M314.573 127.787H173.279C167.331 127.787 162.51 133.55 162.51 140.659V227.866C162.51 234.975 167.331 240.738 173.279 240.738H314.573C320.521 240.738 325.343 234.975 325.343 227.866V140.659C325.343 133.55 320.521 127.787 314.573 127.787Z" fill="white"/>
<path d="M314.573 241.607H173.279C170.231 241.603 167.309 240.154 165.154 237.578C162.999 235.002 161.786 231.509 161.783 227.866V140.659C161.786 137.016 162.999 133.524 165.154 130.948C167.309 128.372 170.231 126.922 173.279 126.918H314.573C317.621 126.923 320.543 128.372 322.698 130.948C324.853 133.524 326.066 137.016 326.069 140.659V227.866C326.066 231.509 324.853 235.002 322.698 237.578C320.543 240.154 317.621 241.603 314.573 241.607ZM173.279 128.656C170.617 128.66 168.064 129.925 166.181 132.176C164.299 134.426 163.24 137.477 163.237 140.659V227.866C163.24 231.049 164.299 234.1 166.181 236.35C168.064 238.6 170.617 239.866 173.279 239.869H314.573C317.236 239.866 319.788 238.6 321.671 236.35C323.553 234.099 324.612 231.049 324.615 227.866V140.659C324.612 137.477 323.553 134.426 321.671 132.176C319.788 129.926 317.236 128.66 314.573 128.656H173.279Z" fill="#3F3D56"/>
<path d="M462.867 114.32H321.574C318.622 114.316 315.792 112.913 313.705 110.418C311.618 107.924 310.444 104.541 310.44 101.013V13.8064C310.444 10.2785 311.618 6.89619 313.705 4.4016C315.792 1.907 318.622 0.503861 321.574 0.5H462.867C465.819 0.504036 468.649 1.90727 470.736 4.40185C472.823 6.89643 473.997 10.2786 474 13.8064V101.013C473.997 104.541 472.823 107.924 470.736 110.418C468.649 112.913 465.819 114.316 462.867 114.32Z" fill="#F2F2F2"/>
<path d="M462.867 368.025H321.574C318.622 368.022 315.792 366.618 313.705 364.124C311.618 361.629 310.443 358.247 310.44 354.719V267.512C310.444 263.984 311.618 260.602 313.705 258.107C315.792 255.613 318.622 254.209 321.574 254.206H462.867C465.819 254.21 468.649 255.613 470.736 258.107C472.823 260.602 473.997 263.984 474 267.512V354.719C473.997 358.246 472.823 361.629 470.736 364.123C468.649 366.618 465.819 368.021 462.867 368.025Z" fill="#F2F2F2"/>
<path d="M284.563 171.811C283.626 167.712 281.698 164.035 279.022 161.238C276.346 158.441 273.04 156.648 269.517 156.083C269.438 156.069 269.364 156.088 269.287 156.081C269.186 156.043 269.084 156.013 268.98 155.992C252.545 153.321 233.573 163.207 226.723 182.804C223.332 177.154 217.925 173.504 212.142 173.867C204.764 174.33 198.253 181.085 196.259 189.969C196.149 190.503 196.179 191.064 196.345 191.577C196.511 192.09 196.804 192.53 197.186 192.836C198.259 193.985 199.547 194.807 200.941 195.233C203.926 196.029 206.921 196.757 209.927 197.419C215.793 198.71 221.689 199.754 227.616 200.55C239.643 202.172 251.751 202.747 263.847 202.273C267.875 202.115 271.76 201.947 275.45 199.711C278.164 198.011 280.459 195.493 282.107 192.405C283.693 189.366 284.731 185.964 285.154 182.418C285.578 178.872 285.376 175.259 284.563 171.811Z" fill="#3F3D56"/>
<path d="M282.752 172.849C281.863 169.214 280.088 165.977 277.654 163.553C275.123 161.085 272.065 159.512 268.826 159.011H268.63L268.448 158.972C268.39 158.95 268.33 158.933 268.27 158.922C262.851 158.152 257.358 158.622 252.085 160.306C241.95 163.492 232.351 171.036 227.87 183.205L227.23 184.952L226.273 183.428C224.802 181.025 222.884 179.062 220.671 177.693C218.459 176.324 216.01 175.587 213.519 175.539C213.276 175.539 213.033 175.544 212.786 175.561C209.413 175.82 206.189 177.321 203.558 179.858C200.926 182.395 199.016 185.842 198.09 189.728C198.043 190.009 198.071 190.301 198.17 190.562C198.268 190.823 198.433 191.041 198.641 191.184L198.715 191.251C199.657 192.205 200.771 192.883 201.969 193.232C204.868 193.969 207.819 194.65 210.737 195.258C216.395 196.441 222.202 197.417 227.991 198.159C238.23 199.473 248.525 200.045 258.821 199.872C260.329 199.85 261.834 199.811 263.336 199.755C267.201 199.616 270.857 199.476 274.32 197.484C276.802 196.014 278.923 193.799 280.473 191.056C281.941 188.404 282.906 185.399 283.299 182.254C283.693 179.109 283.506 175.899 282.752 172.849Z" fill="white"/>
<path d="M258.821 199.872C248.525 200.045 238.23 199.473 227.991 198.159C222.202 197.417 216.395 196.441 210.737 195.258C207.819 194.65 204.868 193.969 201.969 193.232C200.771 192.883 199.657 192.205 198.715 191.251L198.641 191.184C198.433 191.041 198.268 190.823 198.17 190.562C198.071 190.301 198.043 190.009 198.09 189.728C199.016 185.842 200.926 182.395 203.558 179.858C206.189 177.321 209.413 175.82 212.786 175.561C213.033 175.544 213.276 175.539 213.519 175.539C216.01 175.587 218.459 176.324 220.671 177.693C222.884 179.062 224.802 181.025 226.273 183.428L227.23 184.952L227.87 183.205C232.351 171.036 241.95 163.492 252.085 160.306C254.13 162.515 255.446 165.902 254.699 169.044C253.798 172.855 250.231 175.232 249.634 179.126C249.088 182.681 251.216 185.984 253.406 188.473C255.595 190.956 258.13 193.45 258.765 196.976C258.935 197.929 258.954 198.911 258.821 199.872Z" fill="#EE6502"/>
<path d="M267.621 189.042C272.262 189.042 276.024 184.545 276.024 178.998C276.024 173.451 272.262 168.954 267.621 168.954C262.98 168.954 259.218 173.451 259.218 178.998C259.218 184.545 262.98 189.042 267.621 189.042Z" fill="#3F3D56"/>
<path d="M271.144 177.927L267.993 174.16C267.944 174.102 267.886 174.056 267.822 174.024C267.759 173.992 267.69 173.976 267.621 173.976C267.552 173.976 267.484 173.992 267.42 174.024C267.357 174.056 267.299 174.102 267.25 174.16L264.099 177.927C264.05 177.985 264.011 178.054 263.985 178.13C263.958 178.206 263.944 178.288 263.944 178.371C263.944 178.453 263.958 178.535 263.984 178.611C264.011 178.687 264.049 178.757 264.098 178.815C264.147 178.873 264.205 178.92 264.269 178.951C264.332 178.983 264.401 178.999 264.47 178.999C264.539 178.999 264.607 178.982 264.671 178.951C264.735 178.919 264.793 178.873 264.841 178.814L267.096 176.119V183.392C267.096 183.559 267.151 183.718 267.25 183.836C267.348 183.954 267.482 184.02 267.621 184.02C267.761 184.02 267.894 183.954 267.993 183.836C268.091 183.718 268.147 183.559 268.147 183.392V176.119L270.401 178.814C270.5 178.931 270.633 178.997 270.772 178.996C270.911 178.996 271.044 178.93 271.142 178.813C271.241 178.695 271.296 178.536 271.296 178.37C271.297 178.204 271.242 178.044 271.144 177.927H271.144Z" fill="white"/>
<path d="M419.839 83.0941H369.703C368.682 83.0927 367.703 82.6073 366.981 81.7443C366.259 80.8813 365.853 79.7113 365.852 78.4909V23.7833C365.853 22.5629 366.259 21.3929 366.981 20.53C367.703 19.667 368.682 19.1817 369.703 19.1803H419.839C420.86 19.1817 421.839 19.667 422.561 20.53C423.283 21.3929 423.689 22.5629 423.691 23.7833V78.491C423.689 79.7113 423.283 80.8814 422.561 81.7443C421.839 82.6073 420.86 83.0927 419.839 83.0941Z" fill="white"/>
<path d="M419.84 83.963H369.703C368.489 83.9614 367.325 83.3843 366.467 82.3585C365.609 81.3327 365.126 79.9418 365.125 78.4911V23.7834C365.126 22.3326 365.609 20.9418 366.467 19.916C367.325 18.8901 368.489 18.3131 369.703 18.3115H419.84C421.053 18.3131 422.217 18.8901 423.075 19.916C423.934 20.9418 424.416 22.3326 424.418 23.7834V78.4911C424.416 79.9418 423.934 81.3327 423.075 82.3585C422.217 83.3843 421.053 83.9614 419.84 83.963ZM369.703 20.0492C368.875 20.0504 368.081 20.4442 367.495 21.1442C366.909 21.8443 366.58 22.7934 366.579 23.7834V78.4911C366.58 79.4811 366.909 80.4303 367.495 81.1303C368.081 81.8303 368.875 82.2242 369.703 82.2253H419.84C420.668 82.2242 421.462 81.8303 422.048 81.1303C422.633 80.4303 422.963 79.4811 422.964 78.4911V23.7834C422.963 22.7934 422.633 21.8442 422.048 21.1442C421.462 20.4442 420.668 20.0504 419.84 20.0492L369.703 20.0492Z" fill="#CCCCCC"/>
<path d="M384.474 45.1114C387.926 45.1114 390.724 41.7672 390.724 37.6419C390.724 33.5165 387.926 30.1723 384.474 30.1723C381.023 30.1723 378.225 33.5165 378.225 37.6419C378.225 41.7672 381.023 45.1114 384.474 45.1114Z" fill="#CCCCCC"/>
<path d="M409.456 56.4648H380.086C379.592 56.4648 379.119 56.2304 378.77 55.8133C378.421 55.3962 378.225 54.8304 378.225 54.2405C378.225 53.6506 378.421 53.0848 378.77 52.6677C379.119 52.2506 379.592 52.0162 380.086 52.0162H409.456C409.949 52.0162 410.422 52.2506 410.771 52.6677C411.12 53.0848 411.316 53.6506 411.316 54.2405C411.316 54.8304 411.12 55.3962 410.771 55.8133C410.422 56.2304 409.949 56.4648 409.456 56.4648Z" fill="#CCCCCC"/>
<path d="M394.258 65.254H380.086C379.592 65.254 379.119 65.0196 378.77 64.6025C378.421 64.1853 378.225 63.6195 378.225 63.0296C378.225 62.4396 378.421 61.8738 378.77 61.4567C379.119 61.0395 379.592 60.8052 380.086 60.8052H394.258C394.503 60.8046 394.745 60.8617 394.972 60.9732C395.198 61.0848 395.403 61.2485 395.577 61.4551C395.75 61.6617 395.887 61.9072 395.981 62.1773C396.075 62.4475 396.123 62.7371 396.123 63.0296C396.123 63.3221 396.075 63.6117 395.981 63.8818C395.887 64.152 395.75 64.3974 395.577 64.604C395.403 64.8106 395.198 64.9744 394.972 65.0859C394.745 65.1974 394.503 65.2546 394.258 65.254Z" fill="#CCCCCC"/>
<path d="M368.658 99.1504C366.048 99.1504 363.496 98.2254 361.326 96.4923C359.156 94.7593 357.465 92.2961 356.466 89.4142C355.468 86.5322 355.206 83.361 355.716 80.3016C356.225 77.2422 357.481 74.4319 359.327 72.2262C361.172 70.0204 363.524 68.5183 366.083 67.9097C368.643 67.3012 371.296 67.6135 373.707 68.8073C376.118 70.001 378.179 72.0225 379.629 74.6162C381.079 77.2098 381.853 80.2592 381.853 83.3785C381.853 87.5615 380.463 91.5731 377.988 94.5309C375.514 97.4887 372.157 99.1504 368.658 99.1504Z" fill="#CCCCCC"/>
<path d="M373.864 81.8227H369.959V77.1553C369.958 76.7433 369.821 76.3485 369.577 76.0575C369.333 75.7666 369.002 75.6031 368.658 75.6031C368.313 75.6031 367.982 75.7666 367.738 76.0575C367.494 76.3485 367.357 76.7433 367.356 77.1553V81.8227H363.451C363.106 81.8227 362.775 81.9866 362.53 82.2784C362.286 82.5701 362.149 82.9659 362.149 83.3785C362.149 83.7911 362.286 84.1868 362.53 84.4786C362.775 84.7704 363.106 84.9343 363.451 84.9343H367.356V89.6016C367.356 90.0143 367.493 90.41 367.737 90.7018C367.981 90.9935 368.312 91.1575 368.658 91.1575C369.003 91.1575 369.334 90.9935 369.578 90.7018C369.822 90.41 369.959 90.0143 369.959 89.6016V84.9342H373.864C374.209 84.9342 374.54 84.7703 374.785 84.4786C375.029 84.1868 375.166 83.7911 375.166 83.3785C375.166 82.9658 375.029 82.5701 374.785 82.2783C374.54 81.9866 374.209 81.8227 373.864 81.8227V81.8227Z" fill="white"/>
<path d="M367.781 331.461C367.755 331.461 367.728 331.46 367.702 331.459C367.392 331.445 367.089 331.343 366.819 331.159C366.549 330.976 366.32 330.717 366.152 330.405C364.892 328.154 363.345 326.152 361.569 324.471C360.493 323.444 359.369 322.488 358.282 321.564C355.478 319.181 352.837 316.936 351.371 313.835C348.175 307.072 351.939 297.652 357.316 293.428C363.347 288.69 371.281 287.947 378.955 287.849C379.753 287.839 380.551 287.834 381.349 287.834C395.177 287.841 408.976 289.349 422.576 292.34C427.098 293.337 431.832 294.559 435.635 297.523C439.417 300.47 441.715 305.111 441.491 309.347C441.164 315.531 435.679 320.151 430.685 321.359C425.926 322.509 420.981 321.732 415.746 320.909C414.59 320.727 413.395 320.539 412.214 320.376C399.371 318.601 375.246 324.07 374.226 324.304L373.213 324.535L369.284 330.579C369.107 330.854 368.88 331.077 368.619 331.23C368.358 331.383 368.072 331.462 367.781 331.461Z" fill="white"/>
<path d="M367.781 332.33L367.683 332.328C367.256 332.311 366.838 332.171 366.465 331.919C366.093 331.667 365.777 331.312 365.544 330.882C364.326 328.708 362.832 326.774 361.115 325.15C360.052 324.134 358.938 323.188 357.861 322.273C354.991 319.834 352.283 317.532 350.738 314.262C347.345 307.082 351.271 297.137 356.917 292.701C363.103 287.841 371.161 287.08 378.947 286.98C379.748 286.97 380.548 286.965 381.35 286.965C395.222 286.971 409.065 288.484 422.708 291.485C427.302 292.498 432.116 293.742 436.033 296.795C440.029 299.911 442.457 304.859 442.217 309.402C441.866 316.017 436.088 320.938 430.83 322.211C425.949 323.39 420.946 322.603 415.651 321.769C414.499 321.589 413.308 321.402 412.13 321.238C399.364 319.479 375.378 324.924 374.362 325.157L373.619 325.327L369.858 331.111C369.613 331.491 369.299 331.799 368.938 332.01C368.578 332.222 368.182 332.331 367.781 332.33ZM381.349 288.703C380.553 288.703 379.758 288.708 378.963 288.718C371.398 288.814 363.589 289.54 357.715 294.154C352.607 298.167 349.005 307.061 352.004 313.407C353.39 316.34 355.97 318.533 358.701 320.855C359.797 321.786 360.928 322.747 362.022 323.792C363.859 325.531 365.457 327.601 366.76 329.929C366.865 330.124 367.008 330.287 367.178 330.402C367.347 330.517 367.537 330.582 367.731 330.591L367.781 330.592C367.961 330.594 368.138 330.545 368.3 330.45C368.461 330.355 368.601 330.217 368.71 330.046L372.807 323.744L374.089 323.45C375.112 323.215 399.312 317.715 412.297 319.513C413.482 319.676 414.681 319.865 415.841 320.047C421.013 320.862 425.898 321.63 430.541 320.507C435.27 319.363 440.461 315.044 440.765 309.292C440.973 305.364 438.804 301.03 435.238 298.251C431.546 295.374 426.893 294.175 422.444 293.194C408.888 290.212 395.133 288.709 381.349 288.703H381.349Z" fill="#CCCCCC"/>
<path d="M424.969 301.296H370.689C370.377 301.295 370.077 301.146 369.856 300.881C369.635 300.616 369.511 300.258 369.511 299.884C369.511 299.51 369.635 299.152 369.856 298.887C370.077 298.622 370.377 298.473 370.689 298.472H424.969C425.282 298.473 425.582 298.622 425.803 298.887C426.023 299.152 426.147 299.51 426.147 299.884C426.147 300.258 426.023 300.616 425.803 300.881C425.582 301.146 425.282 301.295 424.969 301.296Z" fill="#CCCCCC"/>
<path d="M424.969 309.96H370.689C370.534 309.961 370.38 309.925 370.236 309.854C370.093 309.784 369.962 309.68 369.852 309.549C369.742 309.418 369.655 309.262 369.595 309.091C369.535 308.919 369.505 308.736 369.504 308.55C369.504 308.364 369.535 308.181 369.594 308.009C369.653 307.837 369.741 307.682 369.85 307.55C369.96 307.419 370.091 307.315 370.234 307.244C370.378 307.173 370.532 307.137 370.687 307.137H424.969C425.282 307.138 425.582 307.287 425.803 307.552C426.023 307.816 426.147 308.175 426.147 308.549C426.147 308.922 426.023 309.281 425.803 309.545C425.582 309.81 425.282 309.959 424.969 309.96Z" fill="#CCCCCC"/>
<path d="M377.015 318.624H370.689C370.377 318.624 370.077 318.474 369.856 318.21C369.635 317.945 369.511 317.587 369.511 317.213C369.511 316.839 369.635 316.481 369.856 316.216C370.077 315.951 370.377 315.802 370.689 315.801H377.015C377.328 315.802 377.627 315.951 377.848 316.216C378.069 316.481 378.193 316.839 378.193 317.213C378.193 317.587 378.069 317.945 377.848 318.21C377.627 318.474 377.328 318.624 377.015 318.624Z" fill="#CCCCCC"/>
<path d="M367.725 347.315C372.067 347.315 375.588 343.107 375.588 337.916C375.588 332.725 372.067 328.517 367.725 328.517C363.382 328.517 359.861 332.725 359.861 337.916C359.861 343.107 363.382 347.315 367.725 347.315Z" fill="white"/>
<path d="M367.725 347.43C366.15 347.43 364.611 346.872 363.302 345.826C361.993 344.781 360.973 343.295 360.371 341.557C359.768 339.818 359.611 337.905 359.918 336.06C360.225 334.214 360.983 332.519 362.096 331.189C363.209 329.858 364.628 328.952 366.172 328.585C367.716 328.218 369.316 328.406 370.77 329.126C372.225 329.846 373.468 331.066 374.343 332.63C375.217 334.195 375.684 336.034 375.684 337.916C375.682 340.438 374.842 342.856 373.35 344.64C371.858 346.423 369.835 347.427 367.725 347.43Z" fill="#CCCCCC"/>
<path d="M367.136 341.672C367.119 341.672 367.102 341.671 367.085 341.67C366.937 341.662 366.793 341.615 366.661 341.534C366.529 341.452 366.414 341.337 366.323 341.197L365.009 339.178C364.926 339.05 364.865 338.905 364.829 338.749C364.793 338.593 364.783 338.43 364.8 338.27C364.817 338.11 364.86 337.955 364.927 337.815C364.993 337.674 365.083 337.551 365.189 337.452L365.237 337.408C365.343 337.309 365.465 337.236 365.596 337.193C365.726 337.15 365.862 337.138 365.996 337.158C366.13 337.178 366.26 337.23 366.377 337.309C366.495 337.389 366.598 337.496 366.681 337.624C366.747 337.725 366.831 337.809 366.927 337.869C367.023 337.928 367.128 337.962 367.236 337.968C367.344 337.975 367.452 337.953 367.552 337.905C367.653 337.857 367.743 337.783 367.817 337.69L370.485 334.323C370.673 334.086 370.932 333.949 371.205 333.94C371.477 333.931 371.742 334.052 371.94 334.276L371.984 334.325C372.082 334.437 372.161 334.57 372.216 334.717C372.271 334.865 372.301 335.024 372.305 335.185C372.309 335.346 372.286 335.507 372.237 335.658C372.189 335.809 372.116 335.947 372.023 336.064L367.882 341.288C367.786 341.409 367.671 341.506 367.542 341.572C367.414 341.638 367.276 341.672 367.136 341.672Z" fill="white"/>
<path d="M119.824 291.062C119.509 291.064 119.196 291.099 118.886 291.168L113.738 252.216L118.895 214.717C119.22 212.358 118.784 209.94 117.675 207.95C116.567 205.96 114.868 204.547 112.922 203.995C110.976 203.444 108.927 203.794 107.189 204.977C105.451 206.16 104.153 208.086 103.556 210.368C101.623 217.762 100.666 225.472 100.72 233.219L100.9 258.792L114.624 298.067C114.744 299.266 115.151 300.397 115.797 301.325C116.442 302.253 117.298 302.938 118.261 303.299C119.225 303.659 120.255 303.679 121.228 303.356C122.2 303.033 123.074 302.381 123.744 301.478C124.414 300.576 124.852 299.461 125.004 298.268C125.156 297.075 125.017 295.855 124.603 294.755C124.189 293.654 123.517 292.72 122.67 292.065C121.822 291.41 120.834 291.062 119.824 291.062L119.824 291.062Z" fill="#FFB8B8"/>
<path d="M97.9692 216.231C97.9679 214.279 98.2884 212.347 98.9124 210.543C99.5363 208.74 100.452 207.101 101.606 205.721C102.76 204.34 104.13 203.245 105.638 202.498C107.147 201.751 108.763 201.366 110.396 201.366C112.029 201.366 113.646 201.751 115.154 202.498C116.662 203.245 118.033 204.34 119.187 205.721C120.341 207.101 121.256 208.74 121.88 210.543C122.504 212.347 122.825 214.279 122.823 216.231L114.746 250.287L100.718 249.454L97.9692 216.231Z" fill="#2F2E41"/>
<path d="M127.444 514.97L135.464 514.97L139.28 477.994L127.442 477.995L127.444 514.97Z" fill="#FFB8B8"/>
<path d="M149.457 525.775L137.405 515.827V509.337L136.038 509.432L127.446 510.049L124.727 510.24L123.179 532.431L123.128 533.169H128.82L128.936 532.431L129.838 526.749L132.142 532.431L132.44 533.169H147.531C148.43 533.167 149.291 532.74 149.927 531.982C150.563 531.223 150.922 530.194 150.926 529.121C150.926 528.462 150.793 527.814 150.537 527.231C150.281 526.649 149.911 526.149 149.457 525.775Z" fill="#2F2E41"/>
<path d="M79.3418 492.873L85.7148 498.693L107.531 472.083L98.125 463.493L79.3418 492.873Z" fill="#FFB8B8"/>
<path d="M91.3447 517.435L86.8222 500.783L90.1193 495.627L88.9847 494.71L81.8442 488.965L79.5868 487.144L67.0838 503.652L66.6682 504.202L71.1909 508.333L71.6583 507.83L75.2612 503.969L74.2056 510.157L74.0673 510.96L86.058 521.912C86.773 522.562 87.6743 522.848 88.5651 522.707C89.4558 522.566 90.2637 522.009 90.8121 521.158C91.1469 520.636 91.3702 520.024 91.463 519.375C91.5558 518.726 91.5152 518.06 91.3447 517.435Z" fill="#2F2E41"/>
<path d="M111.879 333.141L119.897 362.551C119.897 362.551 122.747 393.935 125.792 400.885C126.361 402.298 126.753 403.802 126.955 405.351C127.043 405.873 127.108 406.42 127.166 406.967C127.283 408.053 127.363 409.174 127.413 410.304C127.566 415.103 127.393 419.909 126.897 424.675C125.458 426.169 124.404 439.645 123.67 456.266C123.59 457.995 123.515 459.753 123.444 461.54C123.299 465.146 123.168 468.847 123.052 472.566C122.216 498.406 122.681 492.88 122.681 492.88C143.006 497.337 142.17 489.3 142.17 489.3C142.17 489.3 149.149 452.035 150.952 435.057C151.17 433.076 151.3 431.808 151.33 431.443C151.409 429.647 151.686 427.871 152.151 426.16C152.545 425.488 152.898 424.783 153.205 424.049C153.206 424.049 153.207 424.049 153.208 424.048C153.209 424.048 153.21 424.047 153.21 424.046C153.211 424.046 153.211 424.045 153.212 424.044C153.212 424.043 153.212 424.041 153.212 424.04C154.65 420.309 155.46 416.276 155.597 412.172C155.7 410.393 155.704 408.608 155.611 406.828C155.497 396.413 156.234 386.01 157.814 375.767C159.086 368.772 158.257 355.253 157.13 343.671C156.673 338.893 156.156 334.444 155.728 330.925C155.706 330.777 155.691 330.63 155.677 330.482C155.124 326.06 154.717 323.21 154.717 323.21C154.717 323.21 156.571 315.616 155.197 312.81C154.564 311.55 154.652 308.578 154.921 305.642C155.255 302.062 155.88 298.725 155.88 298.725L118.131 290.775C117.338 292.348 116.633 293.869 115.942 295.337C103.461 322.906 111.879 333.141 111.879 333.141Z" fill="#2F2E41"/>
<path d="M101.09 207.329C101.51 205.944 102.215 204.708 103.139 203.735C104.064 202.761 105.178 202.081 106.38 201.758C108.162 201.152 110.016 200.91 111.865 201.041C117.278 201.296 121.093 189.123 126.453 190.062C126.453 190.062 131.498 187.91 135.445 191.853C139.031 195.435 141.503 205.178 142.423 204.624C142.859 204.506 143.311 204.507 143.746 204.625C147.451 205.247 150.823 207.519 153.188 210.986C155.552 214.453 156.733 218.858 156.496 223.322L156.106 231.224C156.106 231.224 158.864 236.186 154.862 244.945L157.185 275.844C157.185 275.844 161.055 318.891 155.24 325.017C149.426 331.143 128.006 304.433 128.006 304.433C128.006 304.433 111.551 301.298 112.525 297.662C113.499 294.026 118.609 283.941 118.609 283.941C118.728 283.378 118.714 282.788 118.568 282.234C118.423 281.681 118.152 281.186 117.785 280.806C116.541 279.857 117.935 277.707 118.04 277.51C117.92 277.653 116.976 278.836 116.256 276.346C115.537 273.856 117.755 270.721 117.755 270.721L111.491 254.6L106.56 241.864L105.961 240.395L101.809 230.149L101.713 229.911C99.5215 224.45 99.0365 218.232 100.346 212.381C100.778 210.743 101.029 209.044 101.09 207.329Z" fill="#EE6502"/>
<path d="M88.0573 470.811C102.967 487.91 105.969 480.638 105.969 480.638C105.969 480.638 114.031 469.542 123.67 456.266C127.13 451.505 130.786 446.466 134.348 441.557C139.27 434.771 144.002 428.237 147.768 423.041C151.933 417.281 154.899 413.162 155.597 412.172C155.7 410.393 155.704 408.608 155.611 406.828C155.497 396.414 156.234 386.01 157.814 375.767C159.086 368.773 158.257 355.253 157.13 343.671C155.444 347.868 153.496 352.847 151.882 357.443C150.079 362.56 148.676 367.191 148.458 369.711C147.768 377.47 138.426 390.294 138.426 390.294L138.317 390.32C136.784 390.807 132.458 396.819 126.956 405.351C111.923 428.654 88.0573 470.811 88.0573 470.811Z" fill="#2F2E41"/>
<path d="M210.245 199.133C210.282 199.507 210.347 199.876 210.44 200.235L178.647 210.777L146.89 208.915C144.893 208.798 142.932 209.591 141.404 211.134C139.876 212.676 138.895 214.854 138.657 217.227C138.42 219.601 138.944 221.994 140.125 223.924C141.306 225.853 143.055 227.176 145.019 227.625C151.385 229.08 157.902 229.34 164.336 228.395L185.573 225.274L216.659 204.512C217.642 204.233 218.536 203.621 219.234 202.749C219.932 201.878 220.404 200.783 220.594 199.598C220.784 198.413 220.684 197.188 220.305 196.069C219.926 194.951 219.284 193.987 218.458 193.294C217.631 192.601 216.655 192.208 215.646 192.163C214.637 192.118 213.639 192.422 212.771 193.039C211.904 193.656 211.204 194.559 210.756 195.64C210.307 196.722 210.13 197.935 210.245 199.133L210.245 199.133Z" fill="#FFB8B8"/>
<path d="M150.528 233.593C148.906 233.816 147.263 233.654 145.694 233.118C144.124 232.582 142.658 231.681 141.38 230.468C140.102 229.254 139.036 227.752 138.244 226.046C137.451 224.34 136.948 222.464 136.763 220.525C136.577 218.587 136.713 216.624 137.162 214.748C137.612 212.872 138.366 211.121 139.382 209.593C140.398 208.066 141.655 206.793 143.083 205.847C144.511 204.901 146.08 204.3 147.702 204.079L176.929 209.8L177.832 226.552L150.528 233.593Z" fill="#2F2E41"/>
<path d="M145.434 177.037C143.631 180.979 140.758 184.069 137.29 185.798C133.821 187.527 129.962 187.793 126.35 186.552C122.738 185.31 119.587 182.635 117.417 178.968C115.247 175.3 114.186 170.858 114.41 166.374C114.634 161.89 116.128 157.63 118.648 154.297C121.168 150.964 124.562 148.755 128.272 148.036C131.982 147.316 135.787 148.128 139.059 150.338C142.331 152.548 144.876 156.024 146.275 160.194C146.351 160.42 146.419 160.647 146.487 160.882C147.278 163.511 147.593 166.31 147.411 169.095C147.23 171.88 146.556 174.587 145.434 177.037Z" fill="#FFB6B6"/>
<path d="M147.812 160.882C147.1 158.502 147.411 159.742 146.691 157.37C146.923 158.539 146.852 159.763 146.487 160.882H126.792V147.198C132.562 144.464 138.203 142.138 141.61 147.198C144.647 147.198 147.559 148.64 149.706 151.206C151.853 153.772 153.059 157.253 153.06 160.882H147.812Z" fill="#2F2E41"/>
<path d="M140.83 198.921C140.815 198.668 140.793 198.406 140.762 198.152C140.498 196.293 140.069 194.473 139.483 192.722C138.915 190.812 138.339 188.893 137.764 186.984C138.505 190.45 138.279 194.111 137.12 197.41C133.796 194.315 135.893 187.237 131.547 187.237C121.097 187.237 110.345 177.11 110.345 164.611C110.345 152.121 114.827 142.781 125.277 142.781C135.734 142.781 144.215 148.501 144.42 160.991C131.547 164.611 143.261 197.654 140.83 198.921Z" fill="#2F2E41"/>
<path d="M111.65 162.696C118.342 162.696 123.766 156.213 123.766 148.216C123.766 140.218 118.342 133.735 111.65 133.735C104.959 133.735 99.5349 140.218 99.5349 148.216C99.5349 156.213 104.959 162.696 111.65 162.696Z" fill="#2F2E41"/>
<path d="M1.146e-05 532.466C-0.000327341 532.602 0.021811 532.737 0.0651665 532.862C0.108522 532.988 0.172224 533.102 0.252623 533.198C0.333023 533.294 0.42852 533.37 0.533631 533.422C0.638741 533.474 0.751386 533.5 0.865085 533.5H204.617C204.846 533.5 205.066 533.391 205.229 533.197C205.391 533.003 205.482 532.74 205.482 532.466C205.482 532.192 205.391 531.929 205.229 531.735C205.066 531.541 204.846 531.432 204.617 531.432H0.865085C0.751387 531.432 0.638762 531.458 0.533653 531.51C0.428544 531.562 0.333044 531.638 0.252645 531.734C0.172247 531.83 0.108523 531.944 0.0651665 532.07C0.0218096 532.196 -0.000323482 532.33 1.146e-05 532.466Z" fill="#CCCCCC"/>
</g>
<defs>
<clipPath id="clip0_15_411">
<rect width="474" height="533" fill="white" transform="translate(0 0.5)"/>
</clipPath>
</defs>
</svg>
