<svg width="696" height="313" viewBox="0 0 696 313" fill="none" xmlns="http://www.w3.org/2000/svg">
<g clip-path="url(#clip0_8_37)">
<path d="M57.2663 285.919C59.9612 286.865 62.8547 287.102 65.6679 286.607C68.4812 286.112 71.1194 284.901 73.3285 283.091C78.9543 278.373 80.7202 270.6 82.1532 263.402L86.398 242.112L77.511 248.227C71.1197 252.624 64.5849 257.163 60.1593 263.533C55.7338 269.902 53.8024 278.598 57.3578 285.489" fill="#E6E6E6"/>
<path d="M58.026 311.694C57.1265 305.147 56.2014 298.516 56.8323 291.899C57.3929 286.022 59.1867 280.282 62.8402 275.575C64.7792 273.081 67.1387 270.945 69.8126 269.262C70.5101 268.823 71.1512 269.926 70.4574 270.364C65.8311 273.285 62.2528 277.599 60.2384 282.684C58.0135 288.339 57.6564 294.503 58.0428 300.509C58.2748 304.141 58.7659 307.749 59.2614 311.354C59.3013 311.517 59.2772 311.69 59.1943 311.836C59.1113 311.982 58.9756 312.09 58.8149 312.14C58.6515 312.184 58.4773 312.162 58.3301 312.078C58.183 311.995 58.0747 311.856 58.0289 311.694L58.026 311.694Z" fill="#F2F2F2"/>
<path d="M660.376 277.588C657.505 278.597 654.422 278.849 651.425 278.322C648.427 277.794 645.616 276.504 643.263 274.576C637.269 269.549 635.39 261.269 633.861 253.601L629.338 230.918L638.807 237.433C645.617 242.118 652.579 246.953 657.294 253.739C662.008 260.525 664.065 269.789 660.278 277.133" fill="#E6E6E6"/>
<path d="M658.914 306.629C660.106 297.953 661.332 289.165 660.494 280.396C659.751 272.608 657.373 265.002 652.532 258.764C649.963 255.46 646.836 252.628 643.293 250.397C642.369 249.815 641.519 251.278 642.439 251.858C648.57 255.729 653.312 261.447 655.981 268.185C658.93 275.678 659.403 283.846 658.895 291.806C658.588 296.62 657.936 301.402 657.281 306.178C657.229 306.394 657.261 306.622 657.371 306.815C657.481 307.008 657.66 307.152 657.872 307.219C658.089 307.277 658.319 307.248 658.514 307.137C658.709 307.026 658.852 306.843 658.913 306.628L658.914 306.629Z" fill="#F2F2F2"/>
<path d="M650.336 292.707C649.104 294.578 647.412 296.1 645.421 297.127C643.43 298.154 641.208 298.652 638.969 298.571C633.213 298.298 628.417 294.286 624.099 290.476L611.327 279.207L619.78 278.803C625.859 278.512 632.095 278.239 637.885 280.114C643.675 281.99 649.015 286.496 650.073 292.485" fill="#E6E6E6"/>
<path d="M662.282 311.616C656.545 301.472 649.89 290.198 637.999 286.594C634.693 285.596 631.226 285.238 627.785 285.54C626.701 285.634 626.972 287.304 628.054 287.211C633.821 286.732 639.578 288.254 644.354 291.52C648.95 294.646 652.528 298.992 655.557 303.6C657.412 306.424 659.074 309.366 660.736 312.305C661.267 313.244 662.82 312.566 662.282 311.616Z" fill="#F2F2F2"/>
<path d="M499.423 188.873H211.802V127.443H499.423V188.873Z" fill="white"/>
<path d="M249.071 173.763C257.696 173.763 264.688 166.777 264.688 158.158C264.688 149.54 257.696 142.553 249.071 142.553C240.446 142.553 233.454 149.54 233.454 158.158C233.454 166.777 240.446 173.763 249.071 173.763Z" fill="#EE6502"/>
<path d="M285.139 147.755C284.448 147.755 283.786 148.029 283.298 148.517C282.81 149.005 282.536 149.666 282.536 150.356C282.536 151.046 282.81 151.707 283.298 152.195C283.786 152.683 284.448 152.957 285.139 152.957H475.173C475.862 152.955 476.523 152.68 477.01 152.193C477.496 151.705 477.77 151.045 477.77 150.356C477.77 149.667 477.496 149.007 477.01 148.519C476.523 148.031 475.862 147.757 475.173 147.755H285.139Z" fill="#EE6502"/>
<path d="M285.139 163.36C284.448 163.359 283.786 163.631 283.297 164.118C282.807 164.605 282.532 165.266 282.53 165.955C282.529 166.645 282.802 167.307 283.289 167.796C283.776 168.285 284.437 168.56 285.128 168.562H405.269C405.612 168.562 405.951 168.495 406.267 168.365C406.583 168.235 406.871 168.043 407.113 167.801C407.355 167.56 407.547 167.273 407.678 166.957C407.809 166.641 407.877 166.303 407.877 165.961C407.877 165.619 407.809 165.28 407.678 164.965C407.547 164.649 407.355 164.362 407.113 164.12C406.871 163.879 406.583 163.687 406.267 163.557C405.951 163.426 405.612 163.359 405.269 163.36H285.139Z" fill="#EE6502"/>
<path d="M499.423 188.873H211.802V127.443H499.423V188.873ZM216.193 184.486H495.032V131.831H216.193V184.486Z" fill="#CCCCCC"/>
<path d="M580.42 173.614C580.14 172.793 580.045 171.921 580.14 171.058C580.234 170.196 580.517 169.365 580.968 168.624C581.419 167.882 582.027 167.249 582.749 166.768C583.472 166.287 584.291 165.97 585.149 165.839L588.405 152.676L596.893 152.702L592.034 171.227C592.158 172.682 591.743 174.132 590.868 175.302C589.994 176.472 588.72 177.281 587.288 177.575C585.857 177.87 584.367 177.629 583.101 176.899C581.835 176.169 580.881 175 580.42 173.614Z" fill="#FFB7B7"/>
<path d="M594.75 165.096L581.75 164.196L588.047 126.703L584.04 85.4202L597.181 80.0361L605.945 125.881L605.921 125.965L594.75 165.096Z" fill="#3F3D56"/>
<path d="M494.232 160.702C494.217 159.834 494.392 158.974 494.746 158.182C495.099 157.39 495.622 156.685 496.278 156.116C496.934 155.548 497.706 155.13 498.541 154.892C499.376 154.654 500.253 154.602 501.11 154.74L508.231 143.197L516.306 145.81L506.021 161.97C505.695 163.393 504.857 164.648 503.667 165.495C502.476 166.343 501.016 166.725 499.563 166.568C498.11 166.412 496.764 165.729 495.782 164.647C494.799 163.566 494.248 162.162 494.232 160.702Z" fill="#FFB7B7"/>
<path d="M534.322 305.032H527.406L524.117 278.378L534.323 278.378L534.322 305.032Z" fill="#FFB7B7"/>
<path d="M536.085 311.73L513.787 311.729V311.447C513.787 309.147 514.702 306.942 516.329 305.315C517.957 303.689 520.164 302.775 522.466 302.775H522.467L536.086 302.776L536.085 311.73Z" fill="#2F2E41"/>
<path d="M582.566 305.032H575.651L572.361 278.378L582.567 278.378L582.566 305.032Z" fill="#FFB7B7"/>
<path d="M584.33 311.73L562.031 311.729V311.447C562.032 309.147 562.946 306.942 564.574 305.315C566.201 303.689 568.409 302.775 570.71 302.775H570.711L584.33 302.776L584.33 311.73Z" fill="#2F2E41"/>
<path d="M575.99 54.7408C585.063 54.7408 592.419 47.3908 592.419 38.3241C592.419 29.2575 585.063 21.9075 575.99 21.9075C566.916 21.9075 559.561 29.2575 559.561 38.3241C559.561 47.3908 566.916 54.7408 575.99 54.7408Z" fill="#FFB8B8"/>
<path d="M570.441 37.4238C567.986 38.4499 565.237 38.526 562.729 37.6372C560.221 36.7484 558.134 34.9585 556.875 32.6162C555.615 30.2738 555.274 27.5469 555.917 24.9667C556.56 22.3866 558.141 20.138 560.352 18.6592C564.725 15.7351 571.255 16.7029 575.495 20.0942C578.353 18.7952 581.55 18.4386 584.625 19.0761C587.699 19.7136 590.49 21.3121 592.595 23.6403C596.687 28.3706 597.135 35.8792 594.153 41.3935C592.848 44.2683 592.27 47.4188 592.467 50.569C592.665 53.7191 593.632 56.7728 595.285 59.4625C594.002 59.4102 591.178 59.1727 587.644 58.868C586.622 58.7799 586.179 55.7784 585.058 55.6818C584.069 55.5967 582.41 58.4171 581.374 58.3296C573.699 57.6816 565.107 57.0234 561.213 57.1521C564.147 50.2886 567.081 43.425 570.441 37.4238Z" fill="#2F2E41"/>
<path d="M588.589 153.977C588.589 153.977 593.928 159.477 590.668 187.882L588.416 248.196L584.43 301.601L571.609 300.749L560.346 177.83L544.579 222.809L536.089 297.171L523.787 296.319L521.686 222.371L527.079 165.222L588.589 153.977Z" fill="#2F2E41"/>
<path d="M535.743 168.662C529.183 168.663 526.541 167.875 526.348 167.814L526.043 167.718L526.097 167.404C526.14 167.146 530.548 141.469 536.595 127.988L540.847 73.3186C540.969 71.6944 541.638 70.1592 542.745 68.9633C543.851 67.7674 545.331 66.9812 546.942 66.7329L546.999 67.0943L546.942 66.7329L557.758 65.0361L564.375 59.2142L580.226 60.0901L581.624 66.7901C583.52 67.3196 596.03 71.1508 597.268 80.325L597.284 80.44L597.23 80.5425L574.311 124.6C576.248 126.51 591.554 142.221 592.593 162.307L592.618 162.79L592.146 162.682C592.102 162.673 587.204 161.743 561.447 166.094C549.534 168.106 541.255 168.662 535.743 168.662Z" fill="#3F3D56"/>
<path d="M510.335 160.436L500.993 153.247L521.843 111.562L541.237 70.7062C541.507 70.1353 541.947 69.6609 542.495 69.3467C543.044 69.0324 543.676 68.8934 544.305 68.9483C544.935 69.0032 545.533 69.2493 546.019 69.6537C546.505 70.058 546.856 70.6013 547.024 71.2104L551.824 88.6112L536.813 127.635L510.335 160.436Z" fill="#3F3D56"/>
<path d="M695.268 313H416.429C416.235 313 416.049 312.923 415.912 312.786C415.774 312.649 415.697 312.463 415.697 312.269C415.697 312.075 415.774 311.889 415.912 311.752C416.049 311.614 416.235 311.537 416.429 311.537H695.268C695.462 311.537 695.648 311.614 695.786 311.752C695.923 311.889 696 312.075 696 312.269C696 312.463 695.923 312.649 695.786 312.786C695.648 312.923 695.462 313 695.268 313Z" fill="#CBCBCB"/>
<path d="M373.865 92.1449H334.345V52.6542H354.105V54.1168H335.809V90.6822H372.402V72.3995H373.865V92.1449Z" fill="#3F3D56"/>
<path d="M353.364 80.479L343.763 69.4633L345.419 68.0227L353.383 77.1604L375.241 52.6557L376.88 54.1154L353.364 80.479Z" fill="#EE6502"/>
<path d="M128.59 49.173L129.514 44.5565C129.514 44.5565 143.104 39.9401 144.625 49.173H128.59Z" fill="#E6E6E6"/>
<path d="M154.673 303.363H163.583L167.822 269.022H154.672L154.673 303.363Z" fill="#9F616A"/>
<path d="M152.4 300.456L169.947 300.455H169.948C172.913 300.456 175.757 301.633 177.854 303.728C179.951 305.824 181.13 308.666 181.13 311.629V311.992L152.401 311.993L152.4 300.456Z" fill="#2F2E41"/>
<path d="M111.722 303.363H120.631L124.87 269.022H111.72L111.722 303.363Z" fill="#9F616A"/>
<path d="M109.449 300.456L126.995 300.455H126.996C129.962 300.456 132.806 301.633 134.903 303.728C137 305.824 138.178 308.666 138.178 311.629V311.992L109.449 311.993L109.449 300.456Z" fill="#2F2E41"/>
<path d="M115.654 68.5623L105.49 67.6387L99.0223 98.1072L99.9459 125.806L110.11 162.738L123.97 154.428L116.578 116.573L115.654 68.5623Z" fill="#3F3D56"/>
<path d="M109.221 159.506L111.496 178.896L113.632 224.137L108.724 291.555L126.28 290.614L134.884 220.443L140.14 188.128L147.532 225.06L152.152 294.307L170.169 292.864V224.817L170.631 175.202L164.164 155.813L109.221 159.506Z" fill="#2F2E41"/>
<path d="M147.07 50.0963C147.07 50.0963 140.602 40.8634 128.59 47.3264L123.046 54.7128L105.49 67.6389L109.186 111.034L104.566 165.508L170.169 164.585L159.082 110.11V51.9429L147.07 50.0963Z" fill="#3F3D56"/>
<path opacity="0.25" d="M111.496 82.964L106.198 146.262L112.882 111.957L111.496 82.964Z" fill="black"/>
<path d="M221.774 136.036C220.831 136.356 219.829 136.466 218.839 136.357C217.848 136.249 216.894 135.925 216.042 135.407C215.191 134.89 214.464 134.193 213.911 133.365C213.359 132.536 212.995 131.597 212.845 130.613L197.727 126.879L197.757 117.145L219.032 122.717C220.704 122.575 222.369 123.051 223.713 124.054C225.057 125.057 225.986 126.518 226.324 128.16C226.662 129.801 226.385 131.51 225.547 132.962C224.708 134.413 223.366 135.507 221.774 136.036H221.774Z" fill="#9F616A"/>
<path d="M205.965 117.029L203.423 131.582L209.795 132.693L212.337 118.14L205.965 117.029Z" fill="#E6E6E6"/>
<path d="M136.787 39.4315C147.034 39.4315 155.341 31.1306 155.341 20.891C155.341 10.6514 147.034 2.35048 136.787 2.35048C126.54 2.35048 118.232 10.6514 118.232 20.891C118.232 31.1306 126.54 39.4315 136.787 39.4315Z" fill="#9F616A"/>
<path d="M138.173 37.2461C133.633 38.3351 128.851 37.6994 124.754 35.4625C120.658 33.2256 117.539 29.5472 116.004 25.1415C114.47 20.7359 114.628 15.9176 116.449 11.6222C118.271 7.32693 121.624 3.86125 125.859 1.89826C129.121 0.443793 132.687 -0.195758 136.251 0.0348147C141.8 0.326343 147.194 2.37577 152.748 2.22475L153.554 3.51794L156.588 2.78261L157.238 5.1898L158.037 5.16216C159.469 7.82071 157.166 11.6269 154.144 11.5947C152.956 11.4578 151.785 11.2028 150.648 10.8335C149.478 10.5831 148.101 10.6455 147.294 11.5282C146.246 12.6754 146.702 14.4655 146.921 16.0034C147.139 17.5413 146.594 19.6129 145.04 19.6631C144.246 19.6887 143.491 19.12 142.711 19.2695C141.803 19.4437 141.344 20.5397 141.476 21.4544C141.701 22.3519 142.068 23.2078 142.563 23.9897C143.614 26.2787 143.781 28.8747 143.032 31.2793C142.284 33.6839 140.673 35.7275 138.509 37.0176" fill="#2F2E41"/>
<path d="M154.671 55.5103L159.082 51.9429C159.082 51.9429 167.982 51.3245 167.821 60.7532L182.063 105.269L209.385 114.94L205.703 133.947L167.047 119.232L147.412 86.7121L154.671 55.5103Z" fill="#3F3D56"/>
<path d="M279.571 313H0.731861C0.53776 313 0.351607 312.923 0.214357 312.786C0.077106 312.649 0 312.463 0 312.269C0 312.075 0.077106 311.889 0.214357 311.752C0.351607 311.614 0.53776 311.537 0.731861 311.537H279.571C279.765 311.537 279.951 311.614 280.088 311.752C280.226 311.889 280.303 312.075 280.303 312.269C280.303 312.463 280.226 312.649 280.088 312.786C279.951 312.923 279.765 313 279.571 313Z" fill="#CBCBCB"/>
</g>
<defs>
<clipPath id="clip0_8_37">
<rect width="696" height="313" fill="white"/>
</clipPath>
</defs>
</svg>
